Coordinates
version=1
nRows=13
nColumns=36
inDegrees=yes

Units are S.I. units (second, meters, Newtons, ...)
If the header above contains a line with 'inDegrees', this indicates whether rotational values are in degrees (yes) or radians (no).

endheader
time	pelvis_tilt	pelvis_list	pelvis_rotation	pelvis_tx	pelvis_ty	pelvis_tz	hip_flexion_r	hip_adduction_r	hip_rotation_r	knee_angle_r	knee_angle_r_beta	ankle_angle_r	subtalar_angle_r	mtp_angle_r	hip_flexion_l	hip_adduction_l	hip_rotation_l	knee_angle_l	knee_angle_l_beta	ankle_angle_l	subtalar_angle_l	mtp_angle_l	lumbar_extension	lumbar_bending	lumbar_rotation	arm_flex_r	arm_add_r	arm_rot_r	elbow_flex_r	pro_sup_r	arm_flex_l	arm_add_l	arm_rot_l	elbow_flex_l	pro_sup_l
     44.75000000	      4.37058824	     -3.65999702	     -1.31090419	      0.60841231	      1.03091565	      0.73925271	    -16.20905299	      5.60485180	      2.87298237	      4.95924788	      0.08655520	     16.79314170	      4.02692723	     -7.49999987	     23.41715224	     -4.45483838	      1.27169342	     10.32893477	      0.18027392	     10.78308433	      2.00133738	     -7.49999987	    -22.98385938	      4.41630922	      5.07589323	     15.04721030	    -22.44881084	     10.33089789	     40.96082906	     80.23308035	      4.62549311	     -8.85435748	     14.62561571	     21.45301320	     91.20546578
     44.76666670	      4.37184393	     -3.44683137	     -1.46598104	      0.60931592	      1.02871634	      0.73887205	    -17.34402096	      5.23748256	      3.02864856	      5.07272036	      0.08853567	     17.28599427	      4.31495446	     -7.49999987	     23.66435472	     -4.00642370	      1.53449800	     10.19914828	      0.17800872	     10.62599500	      2.01392619	     -7.49999987	    -22.70877032	      3.95515794	      5.18586112	     14.92382496	    -22.47210508	     10.64740784	     40.71319223	     78.89293395	      4.88759279	     -8.73996511	     15.29789948	     20.90004827	     89.35096672
     44.78333330	      4.46401104	     -3.12890492	     -1.61734200	      0.61071667	      1.02618963	      0.73845986	    -18.44774865	      4.75496887	      3.39676403	      5.28675023	      0.09227120	     17.56826578	      4.15046221	     -7.49999987	     23.80689041	     -3.46065589	      1.53777382	     10.97870867	      0.19161461	     10.13215153	      1.79092173	     -7.49999987	    -22.52478423	      3.36136553	      5.30948600	     14.66582112	    -22.37182070	     10.58265788	     40.50514707	     79.13446170	      5.05990526	     -8.78646868	     15.64188164	     20.82005960	     89.78299483
     44.80000000	      4.39589044	     -2.80370580	     -1.76048549	      0.61347880	      1.02187916	      0.73732788	    -19.24157941	      4.21958131	      3.73488575	      5.73052194	      0.10001648	     17.80560694	      4.11373340	     -7.49999987	     24.11294970	     -2.93794383	      1.26313660	     12.47615245	      0.21774994	      9.37431966	      1.58956881	     -7.49999987	    -22.11396093	      2.80585946	      5.27238666	     14.34091793	    -22.18995453	     10.63037044	     40.44729875	     79.11875179	      5.02963482	     -8.87452225	     15.68183387	     20.91611594	     89.73175163
     44.81666670	      4.49510893	     -2.42283188	     -1.90939752	      0.61626337	      1.02000310	      0.73555357	    -20.09519013	      3.58032198	      4.24888747	      6.35818190	      0.11097121	     17.63668634	      3.72659414	     -7.49999987	     24.13411262	     -2.35683542	      1.20401167	     14.31993785	      0.24993006	      8.24924980	      0.74933696	     -7.49999987	    -21.71201628	      2.09420617	      5.84344010	     13.67168361	    -22.05836982	     10.18002168	     39.65385781	     79.15660140	      5.94358199	     -8.80675053	     17.42840143	     19.54245910	     89.83433472
     44.83333330	      4.45613189	     -2.03869490	     -2.05914894	      0.61895782	      1.02092925	      0.73248981	    -20.62743641	      2.90801111	      4.78742521	      7.26234559	      0.12675184	     17.08194549	      3.03866976	     -7.49999987	     24.17490623	     -1.80987236	      1.02558346	     16.29064318	      0.28432536	      6.91489681	     -0.00472953	     -7.49999987	    -21.23703212	      1.41112099	      6.28703059	     12.88767976	    -21.84100660	      9.49222507	     39.16591006	     79.46958613	      6.54519167	     -8.74633672	     18.51867078	     18.63694460	     90.00133440
     44.85000000	      4.52741598	     -1.66140693	     -2.12146916	      0.62232102	      1.02436817	      0.72840837	    -21.08399399	      2.22730730	      5.09771095	      8.48023916	      0.14800809	     16.03527651	      2.29041297	     -7.49999987	     23.92795665	     -1.25273119	      0.91932307	     18.16461986	      0.31703242	      5.63663956	     -0.55630652	     -7.49999987	    -21.03784125	      0.79043101	      6.49882541	     12.07976327	    -21.61168900	      8.66487037	     39.02634831	     79.86409786	      6.82999129	     -8.79459217	     19.28751211	     18.42559295	     90.19225460
     44.86666670	      4.57064018	     -1.29139618	     -2.13852539	      0.62789660	      1.02745703	      0.72523299	    -21.24127646	      1.55225377	      5.23615305	     10.15661008	      0.17726629	     14.35876145	      1.30787796	     -7.49999987	     23.48492613	     -0.67571918	      1.01883688	     19.82616570	      0.34603187	      4.49375723	     -1.25728986	     -7.49999987	    -20.76965878	      0.18603381	      6.65955002	     11.22382208	    -21.29143638	      7.86530068	     38.41780524	     79.85192066	      7.10705098	     -8.75865705	     19.99964282	     17.92814697	     89.91870439
     44.88333330	      4.65785182	     -0.95822702	     -2.09528573	      0.63430518	      1.02955680	      0.72398467	    -21.02876411	      0.94154800	      5.10803778	     12.47253430	      0.21768679	     12.04395013	      0.17315162	     -7.49999987	     22.78308682	     -0.10822996	      1.33986233	     21.23427079	      0.37060794	      3.67564981	     -1.97425586	     -7.49999987	    -20.61329116	     -0.38512643	      6.41955441	     10.53793935	    -20.73509708	      7.32645204	     37.55410935	     79.96720581	      7.15483413	     -8.92333629	     20.22050112	     17.78092440	     89.67556608
     44.90000000	      4.77852929	     -0.67934095	     -2.05396181	      0.63873742	      1.03161312	      0.72332170	    -20.15335593	      0.38268861	      4.72471458	     15.88231146	      0.27719863	      9.04107971	     -1.16638729	     -7.49999987	     21.84112515	      0.38516958	      1.68704025	     22.36365740	      0.39031945	      3.31369259	     -2.50849224	     -7.49999987	    -20.52016436	     -0.99069324	      6.80461652	      8.73955796	    -20.08102975	      4.56935619	     37.43681361	     82.99716914	      7.96552650	     -9.16006384	     21.97952217	     17.23331983	     91.26760083
     44.91666670	      4.86885533	     -0.44403729	     -2.04515316	      0.64029437	      1.03406804	      0.72161089	    -18.28678712	     -0.16382135	      4.10884966	     20.79846222	      0.36300165	      5.19900995	     -2.73939305	     -7.49999987	     20.75193155	      0.78728664	      1.91839281	     23.18188927	      0.40460029	      3.34931630	     -2.98833884	     -7.49999987	    -20.39442552	     -1.47238961	      6.19811458	      8.02276000	    -19.38613893	      4.47328418	     36.54379790	     82.25696559	      8.15377685	     -9.63668088	     22.40553377	     17.40382980	     90.07592217
     44.93333330	      4.93699948	     -0.15972630	     -2.10545748	      0.64052417	      1.03652507	      0.71889485	    -15.55499500	     -0.81096505	      3.42650952	     26.93519252	      0.47010779	      0.41026473	     -4.48173933	     -7.49999987	     19.48307114	      1.18098120	      1.94073911	     23.56951227	      0.41136559	      3.76633544	     -3.39647183	     -7.49999987	    -20.29868103	     -2.03848598	      5.68609736	      7.18252319	    -18.74661754	      4.39338610	     35.98624437	     81.13396217	      8.46576980	    -10.19874184	     23.18668012	     17.85789924	     88.46815791
     44.95000000	      4.90515643	      0.15663670	     -2.38328805	      0.64102033	      1.03781342	      0.71654829	    -12.12408586	     -1.51930894	      3.07539091	     33.71402774	      0.58842079	     -5.10433797	     -6.37431528	     -7.49999987	     18.15607506	      1.53997043	      1.76063276	     23.57402762	      0.41144440	      4.42946969	     -3.81898769	     -7.49999987	    -20.10374521	     -2.68897825	      5.75809794	      5.95355587	    -18.12541942	      2.92721185	     35.68639467	     83.03120633	      9.15755308	    -10.81638055	     25.35922863	     18.25578769	     90.27593508
